HIERARCHY
ROOT Hips
{
    OFFSET 0.000 105.850 0.000
    CHANNELS 6 Xposition Yposition Zposition Yrotation Xrotation Zrotation
    JOINT RightUpLeg
    {
        OFFSET -11.500 -1.850 0.000
        CHANNELS 3 Yrotation Xrotation Zrotation
        JOINT RightLeg
        {
            OFFSET 0.000 -48.000 0.000
            CHANNELS 3 Yrotation Xrotation Zrotation
            JOINT RightFoot
            {
                OFFSET 0.000 -48.000 0.000
                CHANNELS 3 Yrotation Xrotation Zrotation
                End Site
                {
                    OFFSET 0.000 -8.000 19.600
                }
            }
        }
    }
    JOINT LeftUpLeg
    {
        OFFSET 11.500 -1.850 0.000
        CHANNELS 3 Yrotation Xrotation Zrotation
        JOINT LeftLeg
        {
            OFFSET 0.000 -48.000 0.000
            CHANNELS 3 Yrotation Xrotation Zrotation
            JOINT LeftFoot
            {
                OFFSET 0.000 -48.000 0.000
                CHANNELS 3 Yrotation Xrotation Zrotation
                End Site
                {
                    OFFSET 0.000 -8.000 19.600
                }
            }
        }
    }
    JOINT Spine
    {
        OFFSET 0.000 16.654 0.000
        CHANNELS 3 Yrotation Xrotation Zrotation
        JOINT Spine1
        {
            OFFSET 0.000 11.312 0.000
            CHANNELS 3 Yrotation Xrotation Zrotation
            JOINT Spine2
            {
                OFFSET 0.000 11.780 0.000
                CHANNELS 3 Yrotation Xrotation Zrotation
                JOINT Spine3
                {
                    OFFSET 0.000 11.312 0.000
                    CHANNELS 3 Yrotation Xrotation Zrotation
                    JOINT Neck
                    {
                        OFFSET 0.000 12.091 0.000
                        CHANNELS 3 Yrotation Xrotation Zrotation
                        JOINT Head
                        {
                            OFFSET 0.000 9.000 0.000
                            CHANNELS 3 Yrotation Xrotation Zrotation
                            End Site
                            {
                                OFFSET 0.000 18.000 0.000
                            }
                        }
                    }
                    JOINT RightShoulder
                    {
                        OFFSET -3.500 8.061 0.000
                        CHANNELS 3 Yrotation Xrotation Zrotation
                        JOINT RightArm
                        {
                            OFFSET -14.000 0.000 0.000
                            CHANNELS 3 Yrotation Xrotation Zrotation
                            JOINT RightForeArm
                            {
                                OFFSET -29.000 0.000 0.000
                                CHANNELS 3 Yrotation Xrotation Zrotation
                                JOINT RightHand
                                {
                                    OFFSET -28.000 0.000 0.000
                                    CHANNELS 3 Yrotation Xrotation Zrotation
                                    JOINT RightHandThumb1
                                    {
                                        OFFSET -2.702 0.206 3.388
                                        CHANNELS 3 Yrotation Xrotation Zrotation
                                        JOINT RightHandThumb2
                                        {
                                            OFFSET -3.998 0.000 0.000
                                            CHANNELS 3 Yrotation Xrotation Zrotation
                                            JOINT RightHandThumb3
                                            {
                                                OFFSET -2.778 0.000 0.000
                                                CHANNELS 3 Yrotation Xrotation Zrotation
                                                End Site
                                                {
                                                    OFFSET -2.382 0.000 0.000
                                                }
                                            }
                                        }
                                    }
                                    JOINT RightInHandIndex
                                    {
                                        OFFSET -3.500 0.552 2.148
                                        CHANNELS 3 Yrotation Xrotation Zrotation
                                        JOINT RightHandIndex1
                                        {
                                            OFFSET -5.664 -0.099 1.085
                                            CHANNELS 3 Yrotation Xrotation Zrotation
                                            JOINT RightHandIndex2
                                            {
                                                OFFSET -3.930 0.000 0.000
                                                CHANNELS 3 Yrotation Xrotation Zrotation
                                                JOINT RightHandIndex3
                                                {
                                                    OFFSET -2.228 0.000 0.000
                                                    CHANNELS 3 Yrotation Xrotation Zrotation
                                                    End Site
                                                    {
                                                        OFFSET -1.960 0.000 0.000
                                                    }
                                                }
                                            }
                                        }
                                    }
                                    JOINT RightInHandMiddle
                                    {
                                        OFFSET -3.672 0.562 0.822
                                        CHANNELS 3 Yrotation Xrotation Zrotation
                                        JOINT RightHandMiddle1
                                        {
                                            OFFSET -5.618 -0.091 0.341
                                            CHANNELS 3 Yrotation Xrotation Zrotation
                                            JOINT RightHandMiddle2
                                            {
                                                OFFSET -4.288 0.000 0.000
                                                CHANNELS 3 Yrotation Xrotation Zrotation
                                                JOINT RightHandMiddle3
                                                {
                                                    OFFSET -2.688 0.000 0.000
                                                    CHANNELS 3 Yrotation Xrotation Zrotation
                                                    End Site
                                                    {
                                                        OFFSET -2.144 0.000 0.000
                                                    }
                                                }
                                            }
                                        }
                                    }
                                    JOINT RightInHandRing
                                    {
                                        OFFSET -3.654 0.584 -0.140
                                        CHANNELS 3 Yrotation Xrotation Zrotation
                                        JOINT RightHandRing1
                                        {
                                            OFFSET -5.032 -0.024 -0.520
                                            CHANNELS 3 Yrotation Xrotation Zrotation
                                            JOINT RightHandRing2
                                            {
                                                OFFSET -3.737 0.000 0.000
                                                CHANNELS 3 Yrotation Xrotation Zrotation
                                                JOINT RightHandRing3
                                                {
                                                    OFFSET -2.593 0.000 0.000
                                                    CHANNELS 3 Yrotation Xrotation Zrotation
                                                    End Site
                                                    {
                                                        OFFSET -2.016 0.000 0.000
                                                    }
                                                }
                                            }
                                        }
                                    }
                                    JOINT RightInHandPinky
                                    {
                                        OFFSET -3.432 0.510 -1.305
                                        CHANNELS 3 Yrotation Xrotation Zrotation
                                        JOINT RightHandPinky1
                                        {
                                            OFFSET -4.496 -0.024 -1.184
                                            CHANNELS 3 Yrotation Xrotation Zrotation
                                            JOINT RightHandPinky2
                                            {
                                                OFFSET -2.993 0.000 0.000
                                                CHANNELS 3 Yrotation Xrotation Zrotation
                                                JOINT RightHandPinky3
                                                {
                                                    OFFSET -1.891 0.000 0.000
                                                    CHANNELS 3 Yrotation Xrotation Zrotation
                                                    End Site
                                                    {
                                                        OFFSET -1.786 0.000 0.000
                                                    }
                                                }
                                            }
                                        }
                                    }
                                }
                            }
                        }
                    }
                    JOINT LeftShoulder
                    {
                        OFFSET 3.500 8.061 0.000
                        CHANNELS 3 Yrotation Xrotation Zrotation
                        JOINT LeftArm
                        {
                            OFFSET 14.000 0.000 0.000
                            CHANNELS 3 Yrotation Xrotation Zrotation
                            JOINT LeftForeArm
                            {
                                OFFSET 29.000 0.000 0.000
                                CHANNELS 3 Yrotation Xrotation Zrotation
                                JOINT LeftHand
                                {
                                    OFFSET 28.000 0.000 0.000
                                    CHANNELS 3 Yrotation Xrotation Zrotation
                                    JOINT LeftHandThumb1
                                    {
                                        OFFSET 2.702 0.206 3.388
                                        CHANNELS 3 Yrotation Xrotation Zrotation
                                        JOINT LeftHandThumb2
                                        {
                                            OFFSET 3.998 0.000 0.000
                                            CHANNELS 3 Yrotation Xrotation Zrotation
                                            JOINT LeftHandThumb3
                                            {
                                                OFFSET 2.778 0.000 0.000
                                                CHANNELS 3 Yrotation Xrotation Zrotation
                                                End Site
                                                {
                                                    OFFSET 2.382 0.000 0.000
                                                }
                                            }
                                        }
                                    }
                                    JOINT LeftInHandIndex
                                    {
                                        OFFSET 3.500 0.552 2.148
                                        CHANNELS 3 Yrotation Xrotation Zrotation
                                        JOINT LeftHandIndex1
                                        {
                                            OFFSET 5.664 -0.099 1.085
                                            CHANNELS 3 Yrotation Xrotation Zrotation
                                            JOINT LeftHandIndex2
                                            {
                                                OFFSET 3.930 0.000 0.000
                                                CHANNELS 3 Yrotation Xrotation Zrotation
                                                JOINT LeftHandIndex3
                                                {
                                                    OFFSET 2.228 0.000 0.000
                                                    CHANNELS 3 Yrotation Xrotation Zrotation
                                                    End Site
                                                    {
                                                        OFFSET 1.960 0.000 0.000
                                                    }
                                                }
                                            }
                                        }
                                    }
                                    JOINT LeftInHandMiddle
                                    {
                                        OFFSET 3.672 0.562 0.822
                                        CHANNELS 3 Yrotation Xrotation Zrotation
                                        JOINT LeftHandMiddle1
                                        {
                                            OFFSET 5.618 -0.091 0.341
                                            CHANNELS 3 Yrotation Xrotation Zrotation
                                            JOINT LeftHandMiddle2
                                            {
                                                OFFSET 4.288 0.000 0.000
                                                CHANNELS 3 Yrotation Xrotation Zrotation
                                                JOINT LeftHandMiddle3
                                                {
                                                    OFFSET 2.688 0.000 0.000
                                                    CHANNELS 3 Yrotation Xrotation Zrotation
                                                    End Site
                                                    {
                                                        OFFSET 2.144 0.000 0.000
                                                    }
                                                }
                                            }
                                        }
                                    }
                                    JOINT LeftInHandRing
                                    {
                                        OFFSET 3.654 0.584 -0.140
                                        CHANNELS 3 Yrotation Xrotation Zrotation
                                        JOINT LeftHandRing1
                                        {
                                            OFFSET 5.032 -0.024 -0.520
                                            CHANNELS 3 Yrotation Xrotation Zrotation
                                            JOINT LeftHandRing2
                                            {
                                                OFFSET 3.737 0.000 0.000
                                                CHANNELS 3 Yrotation Xrotation Zrotation
                                                JOINT LeftHandRing3
                                                {
                                                    OFFSET 2.593 0.000 0.000
                                                    CHANNELS 3 Yrotation Xrotation Zrotation
                                                    End Site
                                                    {
                                                        OFFSET 2.016 0.000 0.000
                                                    }
                                                }
                                            }
                                        }
                                    }
                                    JOINT LeftInHandPinky
                                    {
                                        OFFSET 3.432 0.510 -1.305
                                        CHANNELS 3 Yrotation Xrotation Zrotation
                                        JOINT LeftHandPinky1
                                        {
                                            OFFSET 4.496 -0.024 -1.184
                                            CHANNELS 3 Yrotation Xrotation Zrotation
                                            JOINT LeftHandPinky2
                                            {
                                                OFFSET 2.993 0.000 0.000
                                                CHANNELS 3 Yrotation Xrotation Zrotation
                                                JOINT LeftHandPinky3
                                                {
                                                    OFFSET 1.891 0.000 0.000
                                                    CHANNELS 3 Yrotation Xrotation Zrotation
                                                    End Site
                                                    {
                                                        OFFSET 1.786 0.000 0.000
                                                    }
                                                }
                                            }
                                        }
                                    }
                                }
                            }
                        }
                    }
                }
            }
        }
    }
}
MOTION
Frames: 5
Frame Time: 0.010
215.25 103.36 60.40 99.55 2.43 -2.20 -7.99 -19.58 6.76 -0.00 31.24 0.00 -15.37 -13.65 0.94 2.97 -28.09 6.49 0.00 76.00 0.00 11.25 1.74 10.38 4.55 1.20 3.48 1.15 0.30 0.86 1.92 0.48 1.44 -0.14 2.18 0.19 -0.06 8.44 0.48 0.01 36.78 3.68 -7.45 7.90 0.65 -10.17 -2.24 59.57 40.66 15.78 27.00 -1.97 17.60 -2.03 21.86 -0.00 30.00 -10.00 -0.00 0.00 -10.00 -0.00 0.00 0.00 -0.00 0.00 2.55 -0.00 20.00 0.00 -0.00 24.00 0.00 -0.00 20.00 0.00 -0.00 0.00 0.00 -0.00 20.00 0.00 -0.00 24.00 0.00 -0.00 20.00 0.00 -0.00 0.00 -3.00 -0.00 20.00 0.00 -0.00 24.00 0.00 -0.00 20.00 0.00 -0.00 0.00 -8.83 -0.00 20.00 0.00 -0.00 24.00 0.00 -0.00 20.00 -5.16 9.36 -3.75 -1.04 4.95 -64.45 -28.67 -12.87 -9.82 -6.69 7.97 16.62 -21.86 -0.00 -30.00 10.00 -0.00 0.00 10.00 -0.00 0.00 0.00 -0.00 0.00 -2.55 -0.00 -20.00 0.00 -0.00 -24.00 0.00 -0.00 -20.00 0.00 -0.00 0.00 0.00 -0.00 -20.00 0.00 -0.00 -24.00 0.00 -0.00 -20.00 0.00 -0.00 0.00 3.00 -0.00 -20.00 0.00 -0.00 -24.00 0.00 -0.00 -20.00 0.00 -0.00 0.00 8.83 -0.00 -20.00 0.00 -0.00 -24.00 0.00 -0.00 -20.00 
216.75 103.71 60.26 99.46 2.47 -1.98 -8.37 -18.16 6.45 -0.00 30.13 0.00 -14.71 -13.51 1.13 3.51 -29.62 6.08 0.00 75.24 0.00 10.73 0.20 10.44 4.59 1.21 3.36 1.16 0.31 0.83 1.94 0.48 1.38 -0.14 2.19 0.18 -0.06 8.80 0.49 0.10 36.78 3.63 -7.30 7.97 0.49 -9.69 -2.58 59.78 40.64 15.54 26.66 -2.02 17.62 -2.24 21.86 -0.00 30.00 -10.00 -0.00 0.00 -10.00 -0.00 0.00 0.00 -0.00 0.00 2.55 -0.00 20.00 0.00 -0.00 24.00 0.00 -0.00 20.00 0.00 -0.00 0.00 0.00 -0.00 20.00 0.00 -0.00 24.00 0.00 -0.00 20.00 0.00 -0.00 0.00 -3.00 -0.00 20.00 0.00 -0.00 24.00 0.00 -0.00 20.00 0.00 -0.00 0.00 -8.83 -0.00 20.00 0.00 -0.00 24.00 0.00 -0.00 20.00 -5.00 9.32 -3.81 -0.96 4.92 -64.23 -28.70 -12.58 -9.96 -6.48 8.31 16.07 -21.86 -0.00 -30.00 10.00 -0.00 0.00 10.00 -0.00 0.00 0.00 -0.00 0.00 -2.55 -0.00 -20.00 0.00 -0.00 -24.00 0.00 -0.00 -20.00 0.00 -0.00 0.00 0.00 -0.00 -20.00 0.00 -0.00 -24.00 0.00 -0.00 -20.00 0.00 -0.00 0.00 3.00 -0.00 -20.00 0.00 -0.00 -24.00 0.00 -0.00 -20.00 0.00 -0.00 0.00 8.83 -0.00 -20.00 0.00 -0.00 -24.00 0.00 -0.00 -20.00 
218.24 104.11 60.19 99.39 2.43 -1.73 -8.95 -16.73 6.15 0.00 29.11 0.00 -13.91 -13.36 1.17 4.08 -30.95 5.55 -0.00 74.16 -0.00 9.90 -1.27 10.20 4.57 1.37 3.29 1.15 0.35 0.81 1.93 0.56 1.35 -0.10 2.27 0.16 0.01 11.79 0.51 0.69 36.62 3.28 -7.11 7.81 0.10 -9.04 -3.08 60.18 41.06 15.06 26.15 -2.11 17.59 -2.72 21.86 -0.00 30.00 -10.00 -0.00 0.00 -10.00 -0.00 0.00 0.00 -0.00 0.00 2.55 -0.00 20.00 0.00 -0.00 24.00 0.00 -0.00 20.00 0.00 -0.00 0.00 0.00 -0.00 20.00 0.00 -0.00 24.00 0.00 -0.00 20.00 0.00 -0.00 0.00 -3.00 -0.00 20.00 0.00 -0.00 24.00 0.00 -0.00 20.00 0.00 -0.00 0.00 -8.83 -0.00 20.00 0.00 -0.00 24.00 0.00 -0.00 20.00 -4.34 9.05 -4.00 0.58 4.52 -62.65 -29.08 -9.98 -11.35 -5.19 12.32 10.84 -21.86 -0.00 -30.00 10.00 -0.00 0.00 10.00 -0.00 0.00 0.00 -0.00 0.00 -2.55 -0.00 -20.00 0.00 -0.00 -24.00 0.00 -0.00 -20.00 0.00 -0.00 0.00 0.00 -0.00 -20.00 0.00 -0.00 -24.00 0.00 -0.00 -20.00 0.00 -0.00 0.00 3.00 -0.00 -20.00 0.00 -0.00 -24.00 0.00 -0.00 -20.00 0.00 -0.00 0.00 8.83 -0.00 -20.00 0.00 -0.00 -24.00 0.00 -0.00 -20.00 
219.73 104.50 60.16 99.33 2.35 -1.47 -9.59 -15.26 5.83 0.00 28.11 -0.00 -13.09 -13.20 1.25 4.62 -32.09 4.99 -0.00 72.74 -0.00 8.80 -2.67 9.71 4.61 1.44 3.14 1.16 0.37 0.77 1.94 0.59 1.29 -0.09 2.28 0.16 0.02 12.18 0.51 0.76 36.58 3.24 -7.05 7.87 -0.16 -8.64 -3.41 60.51 41.03 14.69 25.85 -2.16 17.49 -2.92 21.86 -0.00 30.00 -10.00 -0.00 0.00 -10.00 -0.00 0.00 0.00 -0.00 0.00 2.55 -0.00 20.00 0.00 -0.00 24.00 0.00 -0.00 20.00 0.00 -0.00 0.00 0.00 -0.00 20.00 0.00 -0.00 24.00 0.00 -0.00 20.00 0.00 -0.00 0.00 -3.00 -0.00 20.00 0.00 -0.00 24.00 0.00 -0.00 20.00 0.00 -0.00 0.00 -8.83 -0.00 20.00 0.00 -0.00 24.00 0.00 -0.00 20.00 -4.20 9.04 -4.03 0.68 4.47 -62.45 -29.14 -9.70 -11.51 -5.10 12.82 10.25 -21.86 -0.00 -30.00 10.00 -0.00 0.00 10.00 -0.00 0.00 0.00 -0.00 0.00 -2.55 -0.00 -20.00 0.00 -0.00 -24.00 0.00 -0.00 -20.00 0.00 -0.00 0.00 0.00 -0.00 -20.00 0.00 -0.00 -24.00 0.00 -0.00 -20.00 0.00 -0.00 0.00 3.00 -0.00 -20.00 0.00 -0.00 -24.00 0.00 -0.00 -20.00 0.00 -0.00 0.00 8.83 -0.00 -20.00 0.00 -0.00 -24.00 0.00 -0.00 -20.00 
221.25 104.84 60.17 99.27 2.25 -1.21 -10.20 -13.80 5.51 0.00 27.17 0.00 -12.30 -13.07 1.32 5.21 -33.34 4.39 -0.00 71.27 -0.00 7.45 -3.96 9.18 4.66 1.58 3.01 1.17 0.41 0.74 1.97 0.66 1.24 -0.10 2.28 0.15 0.01 12.04 0.51 0.70 36.60 3.21 -7.03 7.89 -0.62 -8.12 -3.95 61.03 41.39 13.78 25.40 -2.21 17.11 -3.39 21.86 -0.00 30.00 -10.00 -0.00 0.00 -10.00 -0.00 0.00 0.00 -0.00 0.00 2.55 -0.00 20.00 0.00 -0.00 24.00 0.00 -0.00 20.00 0.00 -0.00 0.00 0.00 -0.00 20.00 0.00 -0.00 24.00 0.00 -0.00 20.00 0.00 -0.00 0.00 -3.00 -0.00 20.00 0.00 -0.00 24.00 0.00 -0.00 20.00 0.00 -0.00 0.00 -8.83 -0.00 20.00 0.00 -0.00 24.00 0.00 -0.00 20.00 -3.73 9.01 -4.22 2.24 4.16 -60.80 -29.88 -7.29 -12.99 -4.57 17.54 5.18 -21.86 -0.00 -30.00 10.00 -0.00 0.00 10.00 -0.00 0.00 0.00 -0.00 0.00 -2.55 -0.00 -20.00 0.00 -0.00 -24.00 0.00 -0.00 -20.00 0.00 -0.00 0.00 0.00 -0.00 -20.00 0.00 -0.00 -24.00 0.00 -0.00 -20.00 0.00 -0.00 0.00 3.00 -0.00 -20.00 0.00 -0.00 -24.00 0.00 -0.00 -20.00 0.00 -0.00 0.00 8.83 -0.00 -20.00 0.00 -0.00 -24.00 0.00 -0.00 -20.00 
